<svg width="180" height="33" viewBox="0 0 180 33" fill="none" xmlns="http://www.w3.org/2000/svg">
<g clip-path="url(#clip0_271_64)">
<path d="M149.114 22.25V20.0537C153.166 19.8087 155.692 18.6917 155.692 18.6917V20.4025H151.292V23.3481H155.692V24.6677H159.34V6.93764C159.34 6.31082 158.523 5.80182 157.514 5.80182C156.504 5.80182 155.692 6.31082 155.692 6.93764L155.678 15.4021C155.678 15.4021 152.33 16.7735 148.433 16.9668C144.751 17.1459 140.751 17.0139 140.751 17.0139V20.0914H144.784C145.029 20.0914 145.249 20.0914 145.465 20.082V22.2453H149.114V22.25Z" fill="#1A1A1A"/>
<path d="M45.696 22.3723C45.696 21.7455 44.879 21.2365 43.8695 21.2365C42.86 21.2365 42.043 21.7455 42.043 22.3723V29.3051H57.4769V26.1568H45.6913V22.3723H45.696Z" fill="#1A1A1A"/>
<path d="M74.1827 12.9182C74.6851 12.1264 74.9716 11.2026 74.9716 10.2129C74.9716 7.29091 72.5065 4.91559 69.3182 4.91559C66.13 4.91559 63.6884 7.29091 63.6884 10.2129C63.6884 11.2026 63.9607 12.1217 64.4397 12.904V16.3963H59.2324V19.4456H79.6154V16.3963H74.1827V12.9229V12.9182ZM69.3182 8.12981C70.4921 8.12981 71.4875 9.01585 71.4875 10.2129C71.4875 11.41 70.4733 12.2913 69.3182 12.2913C68.1632 12.2913 67.1489 11.3865 67.1489 10.2129C67.1489 9.03941 68.1632 8.12981 69.3182 8.12981ZM68.0411 16.3916V15.3548C68.4496 15.4396 68.8769 15.482 69.3229 15.482C69.769 15.482 70.1822 15.4349 70.586 15.35V16.3869H68.0411V16.3916Z" fill="#1A1A1A"/>
<path d="M44.846 15.072C44.846 15.072 45.6067 16.3586 46.9355 17.6264C48.1938 18.8235 50.2927 19.8462 50.2927 19.8462L52.0582 17.0514C52.0582 17.0514 49.6119 15.9297 48.0201 13.7901C46.7289 12.0557 46.6725 9.8689 46.6725 8.20995V6.93745C46.6725 6.31063 45.8555 5.80164 44.846 5.80164C43.8365 5.80164 43.0195 6.31063 43.0195 6.93745V8.20995C43.0195 9.8689 42.9584 12.0557 41.6719 13.7901C40.0801 15.925 37.6338 17.0514 37.6338 17.0514L39.3993 19.8462C39.3993 19.8462 41.4981 18.8282 42.7565 17.6264C44.0853 16.3586 44.846 15.0767 44.846 15.072Z" fill="#1A1A1A"/>
<path d="M55.7963 5.80182C54.7867 5.80182 53.9697 6.31082 53.9697 6.93764V23.9278H57.6181V6.93764C57.6181 6.31082 56.8011 5.80182 55.7916 5.80182H55.7963Z" fill="#1A1A1A"/>
<path d="M111.949 15.9863L116.973 16.0099C116.973 16.0099 117.015 7.02229 117.015 6.97045C117.015 6.34363 116.203 5.82992 115.198 5.82521C114.188 5.82521 113.362 6.32478 113.362 6.9516V8.27122L107.23 8.24294V6.92332C107.239 6.2965 106.422 5.78279 105.417 5.77808C104.408 5.77808 103.591 6.27765 103.586 6.90447L103.544 15.9439L108.3 15.9675V17.0326L99.5903 16.9949L99.5762 20.0441L119.837 20.1337L119.851 17.0844L111.944 17.0467V15.9816L111.949 15.9863ZM107.206 12.8899L107.216 11.2969L113.348 11.3252L113.339 12.9182L107.206 12.8899Z" fill="#1A1A1A"/>
<path d="M103.553 23.9557H113.31V29.3049H116.986V20.8546H103.553V23.9557Z" fill="#1A1A1A"/>
<path d="M127.528 16.3539C130.604 16.3539 132.98 14.0021 132.98 11.1084C132.98 8.21462 130.604 5.83929 127.528 5.83929C124.453 5.83929 122.096 8.20048 122.096 11.1084C122.096 14.0162 124.411 16.3539 127.528 16.3539ZM127.528 9.03938C128.66 9.03938 129.623 9.9207 129.623 11.1084C129.623 12.296 128.646 13.1773 127.528 13.1773C126.411 13.1773 125.434 12.2772 125.434 11.1084C125.434 9.93955 126.411 9.03938 127.528 9.03938Z" fill="#1A1A1A"/>
<path d="M147.714 16.3539C150.789 16.3539 153.17 14.0021 153.17 11.1084C153.17 8.21462 150.789 5.83929 147.714 5.83929C144.638 5.83929 142.281 8.20048 142.281 11.1084C142.281 14.0162 144.596 16.3539 147.714 16.3539ZM147.714 9.03938C148.85 9.03938 149.808 9.9207 149.808 11.1084C149.808 12.296 148.831 13.1773 147.714 13.1773C146.596 13.1773 145.624 12.2772 145.624 11.1084C145.624 9.93955 146.601 9.03938 147.714 9.03938Z" fill="#1A1A1A"/>
<path d="M69.3183 19.733C66.1442 19.733 63.6885 22.1083 63.6885 25.0256C63.6885 27.9429 66.0879 30.2994 69.3183 30.2994C72.5488 30.2994 74.9716 27.9335 74.9716 25.0256C74.9716 22.1177 72.5065 19.733 69.3183 19.733ZM69.3183 27.1087C68.1632 27.1087 67.149 26.2038 67.149 25.0303C67.149 23.8568 68.1632 22.9519 69.3183 22.9519C70.4734 22.9519 71.4876 23.8379 71.4876 25.0303C71.4876 26.2227 70.4734 27.1087 69.3183 27.1087Z" fill="#1A1A1A"/>
<path d="M149.113 24.2858C149.113 23.659 148.296 23.15 147.286 23.15C146.277 23.15 145.46 23.659 145.46 24.2858V29.3098H159.335V26.1615H149.108V24.2905L149.113 24.2858Z" fill="#1A1A1A"/>
<path d="M96.6182 5.80165C95.6087 5.80165 94.7963 6.31065 94.7963 6.93747L94.7823 19.5964C94.7823 19.5964 92.3171 20.6945 89.0867 20.6945V19.0309C91.1621 18.2721 92.5425 16.434 92.5425 14.2284C92.5425 13.2104 92.1669 12.1358 91.5565 11.3299H93.3595V8.25238H88.9928V6.95161C88.9928 6.95161 88.9928 6.93747 88.9928 6.93275C88.9928 6.30593 88.1758 5.79694 87.1662 5.79694C86.1567 5.79694 85.3397 6.30593 85.3397 6.93275V8.25238H80.7053V11.3299H82.6211C82.0294 12.15 81.6679 13.2292 81.6679 14.2284C81.6679 17.4945 84.3443 18.8329 85.4383 19.1487L85.4289 20.8548H79.8789V23.9323L83.762 23.9088C92.6505 23.9088 94.7963 22.7305 94.7963 22.7305V25.4782H98.4447V6.93747C98.4447 6.31065 97.6277 5.80165 96.6182 5.80165ZM87.0911 16.2408C85.9126 16.2408 85.0486 15.3218 85.0486 14.2095C85.0486 13.0973 85.9126 12.1547 87.0911 12.1547C88.2697 12.1547 89.1336 13.0879 89.1336 14.2095C89.1336 15.3312 88.2978 16.2408 87.0911 16.2408Z" fill="#1A1A1A"/>
<path d="M178.173 5.80165C177.164 5.80165 176.347 6.31065 176.347 6.93747L176.332 19.5964C176.332 19.5964 173.867 20.6945 170.637 20.6945V19.0309C172.712 18.2721 174.093 16.434 174.093 14.2284C174.093 13.2104 173.717 12.1358 173.107 11.3299H174.905V8.25238H170.538V6.95161C170.538 6.95161 170.538 6.93747 170.538 6.93275C170.538 6.30593 169.721 5.79694 168.712 5.79694C167.702 5.79694 166.885 6.30593 166.885 6.93275V8.25238H162.251V11.3299H164.167C163.575 12.15 163.213 13.2292 163.213 14.2284C163.213 17.4945 165.89 18.8329 166.984 19.1487L166.974 20.8548H160.974V23.9323L165.308 23.9135C174.196 23.9135 176.342 22.7258 176.342 22.7258V25.4735H179.99V6.93747C179.99 6.31065 179.173 5.80165 178.164 5.80165H178.173ZM168.646 16.2408C167.467 16.2408 166.603 15.3218 166.603 14.2095C166.603 13.0973 167.467 12.1547 168.646 12.1547C169.825 12.1547 170.689 13.0879 170.689 14.2095C170.689 15.3312 169.853 16.2408 168.646 16.2408Z" fill="#1A1A1A"/>
<path d="M137.332 5.80182C136.322 5.80182 135.505 6.31082 135.505 6.93764L135.491 15.4021C135.491 15.4021 132.759 16.7735 128.861 16.9668C125.18 17.1459 121.029 17.0139 121.029 17.0139V20.0915L123.959 20.0679C124.706 20.0679 125.02 20.0585 125.682 20.049V25.4831H129.331V19.9124C133.669 19.6484 135.51 18.6964 135.51 18.6964V25.4783H139.158V6.93764C139.158 6.31082 138.341 5.80182 137.337 5.80182H137.332Z" fill="#1A1A1A"/>
<path d="M32.8115 16.1606C32.8021 15.7223 32.774 15.2888 32.727 14.8552C32.6848 14.4216 32.619 13.9927 32.5439 13.5638C32.4641 13.1397 32.3842 12.7202 32.2716 12.3007C32.1589 11.8813 32.0415 11.4618 31.8959 11.0518C31.7504 10.6418 31.5954 10.2223 31.4217 9.82646C31.2479 9.43057 31.0601 9.02997 30.8535 8.64822C30.6469 8.26647 30.4403 7.88944 30.2009 7.52654C29.8393 6.98455 29.5623 6.57924 29.196 6.12208C28.8627 5.70263 28.7171 5.54711 28.5715 5.38687C28.5011 5.30675 28.2006 4.97213 28.1677 4.9627C28.1067 4.92028 28.0222 4.92971 27.9658 4.98155C27.9048 5.04282 27.9095 5.14179 27.9658 5.21249C28.0738 5.35388 28.2288 5.53297 28.4072 5.82046C28.5528 6.05139 29.8346 7.72448 30.3605 10.5287C30.7549 12.6495 30.7361 15.482 29.2571 18.4464C26.5666 23.8333 20.4954 26.3783 14.9219 24.823V24.8136C17.4246 25.0304 19.9084 23.6825 21.026 21.2695C22.4628 18.1778 21.1293 14.5064 18.0537 13.0642C14.9735 11.6221 11.3158 12.9606 9.88366 16.0522C8.76145 18.4653 9.3296 21.2412 11.1045 23.0274L11.1984 23.1169V23.1311C6.35738 19.9828 4.22565 13.7618 6.4372 8.17693C7.65802 5.09466 9.75219 3.19535 11.5881 2.07838C14.0204 0.607945 16.1145 0.452418 16.3869 0.410002C16.7202 0.353447 16.955 0.348734 17.1334 0.339308C17.2226 0.339308 17.2978 0.27804 17.3072 0.188494C17.3072 0.108374 17.2602 0.0423926 17.1898 0.0235408C17.1569 0.00468909 16.7108 0.00468909 16.6028 0.00468909C16.3869 0.00468909 16.1756 -2.38484e-05 15.6403 0.0282538C15.058 0.0612444 14.5697 0.122513 13.9264 0.212058C13.4945 0.273327 13.0813 0.367585 12.6587 0.466557C12.2361 0.565529 11.8182 0.692778 11.405 0.824741C10.9918 0.956703 10.5786 1.11694 10.1795 1.2819C9.78036 1.44685 9.39064 1.63537 9.00561 1.83331C8.62059 2.03125 8.25904 2.24805 7.8881 2.46956C7.51716 2.69578 7.15561 2.93614 6.80815 3.19064C6.45599 3.44513 6.11322 3.71377 5.77984 3.99655C5.44647 4.27933 5.12717 4.57624 4.81728 4.88729C4.50738 5.19835 4.20687 5.52354 3.92514 5.85816C3.63872 6.19749 3.36638 6.54625 3.10344 6.90915C2.84049 7.27204 2.59633 7.64908 2.36625 8.03554C2.13148 8.42671 1.91549 8.82731 1.71358 9.23734C1.51168 9.65208 1.32386 10.0715 1.15483 10.5004C-1.97704 18.4841 1.53985 27.4481 9.03379 31.2279L9.9447 31.6568C9.9494 31.6568 10.4049 31.8453 10.4049 31.8453C18.204 34.9464 27.2099 31.6144 31.0601 23.9558C31.2667 23.5458 31.4592 23.1217 31.6283 22.6975C31.7973 22.2733 31.9523 21.8444 32.0884 21.4109C32.2199 20.982 32.3373 20.5484 32.4359 20.1054C32.5298 19.6718 32.6096 19.2335 32.6707 18.7905C32.7317 18.3522 32.774 17.9139 32.7974 17.4756C32.8209 17.0373 32.8303 16.5989 32.8209 16.1606" fill="#EF8200"/>
</g>
<defs>
<clipPath id="clip0_271_64">
<rect width="180" height="33" fill="white"/>
</clipPath>
</defs>
</svg>
